<?xml version="1.0" encoding="UTF-8"?>
<svg width="23px" height="24px" viewBox="0 0 23 24" version="1.1" xmlns="http://www.w3.org/2000/svg" xmlns:xlink="http://www.w3.org/1999/xlink">
    <!-- Generator: Sketch 47.1 (45422) - http://www.bohemiancoding.com/sketch -->
    <title>icn-tag</title>
    <desc>Created with Sketch.</desc>
    <defs></defs>
    <g id="Symbols" stroke="none" stroke-width="1" fill="none" fill-rule="evenodd">
        <g id="icn-tag" fill="#B0B0B0">
            <path d="M2,0 L8.91035677,0 L8.91035677,-1.33226763e-15 C9.72512193,-2.2055944e-15 10.504843,0.331394375 11.0702882,0.918006671 L21.3282259,11.5599437 L21.3282259,11.5599437 C22.478079,12.7528409 22.4431849,14.6520153 21.2502878,15.8018685 C21.2447019,15.8072528 21.2390952,15.8126153 21.2334678,15.8179561 L15.3598702,21.3923546 C14.1806512,22.5115045 12.3245719,22.4877131 11.1744264,21.3387053 L0.879729565,11.0541912 C0.316478199,10.491497 -7.90676466e-16,9.72798536 -8.8817842e-16,8.93182149 L0,2 L0,2 C-1.3527075e-16,0.8954305 0.8954305,2.02906125e-16 2,0 L2,0 Z M3.56489228,5.08766591 C4.40867898,5.08766591 5.09270326,4.40431823 5.09270326,3.56136614 C5.09270326,2.71841405 4.40867898,2.03506637 3.56489228,2.03506637 C2.72110558,2.03506637 2.0370813,2.71841405 2.0370813,3.56136614 C2.0370813,4.40431823 2.72110558,5.08766591 3.56489228,5.08766591 Z" id="Combined-Shape"></path>
        </g>
    </g>
</svg>