<?xml version="1.0" encoding="UTF-8"?>
<svg width="23px" height="24px" viewBox="0 0 23 24" version="1.1" xmlns="http://www.w3.org/2000/svg" xmlns:xlink="http://www.w3.org/1999/xlink">
    <!-- Generator: Sketch 47.1 (45422) - http://www.bohemiancoding.com/sketch -->
    <title>icn-tag</title>
    <desc>Created with Sketch.</desc>
    <defs></defs>
    <g id="Symbols" stroke="none" stroke-width="1" fill="none" fill-rule="evenodd">
        <g id="icn-tag" fill="#A4A4A4">
            <path d="M1,0 L9.76038993,0 L9.76038993,2.44249065e-15 C10.0319783,2.39260068e-15 10.2918853,0.110464792 10.4803671,0.306002224 L22.7270319,13.0111132 L22.7270319,13.0111132 C23.1103163,13.4087456 23.098685,14.0418037 22.7010526,14.4250881 C22.6991906,14.4268829 22.6973217,14.4286704 22.6954459,14.4304507 L13.947309,22.7329603 L13.947309,22.7329603 C13.5542361,23.1060103 12.9355429,23.0980798 12.5521611,22.7150772 L0.293243188,10.468285 L0.293243188,10.468285 C0.105492733,10.2807202 -1.88221299e-15,10.0262163 -1.44328993e-15,9.76082838 L0,1 L0,1 C-6.76353751e-17,0.44771525 0.44771525,1.01453063e-16 1,0 L1,0 Z M3.56489228,5.08766591 C4.40867898,5.08766591 5.09270326,4.40431823 5.09270326,3.56136614 C5.09270326,2.71841405 4.40867898,2.03506637 3.56489228,2.03506637 C2.72110558,2.03506637 2.0370813,2.71841405 2.0370813,3.56136614 C2.0370813,4.40431823 2.72110558,5.08766591 3.56489228,5.08766591 Z" id="Combined-Shape"></path>
        </g>
    </g>
</svg>