<?xml version="1.0" encoding="UTF-8"?>
<svg width="10px" height="16px" viewBox="0 0 10 16" version="1.1" xmlns="http://www.w3.org/2000/svg" xmlns:xlink="http://www.w3.org/1999/xlink">
    <!-- Generator: Sketch 47.1 (45422) - http://www.bohemiancoding.com/sketch -->
    <title>icn-back</title>
    <desc>Created with Sketch.</desc>
    <defs></defs>
    <g id="Symbols" stroke="none" stroke-width="1" fill="none" fill-rule="evenodd">
        <g id="icn-back" fill="#EF7766">
            <path d="M11.7863747,1.88262556 C11.7756084,1.88244406 11.7648202,1.88235294 11.7540107,1.88235294 L11.7540107,1.88235294 L3.70053476,1.88235294 L3.70053476,1.88235294 C2.66093994,1.88235294 1.81818182,2.72511106 1.81818182,3.76470588 L1.81818182,3.76470588 L1.81818182,3.76470588 C1.81818182,4.80430071 2.66093994,5.64705882 3.70053476,5.64705882 L3.70053476,5.64705882 L10,5.64705882 L10,12.2994652 C10,13.3036193 10.8140277,14.1176471 11.8181818,14.1176471 C12.8223359,14.1176471 13.6363636,13.3036193 13.6363636,12.2994652 L13.6363636,3.70053476 C13.6363636,2.69638067 12.8223359,1.88235294 11.8181818,1.88235294 C11.8075579,1.88235294 11.7969553,1.88244406 11.7863747,1.88262556 Z" id="Combined-Shape" transform="translate(7.727273, 8.000000) scale(-1, 1) rotate(45.000000) translate(-7.727273, -8.000000) "></path>
        </g>
    </g>
</svg>